# xmcd CD database file
#
# Track frame offsets:
#	150
#	34200
#	69750
#	105225
#
# Disc length: 1953 seconds
#
# Revision: 1
# Processed by: cddbd v1.5.2PL0 Copyright (c) Steve Scherf et al.
# Submitted via: CDex 1.70beta2
#
DISCID=25079f04
DTITLE=Makiko Hirohashi=牧野真理子 - Forest
DYEAR=1993
DGENRE=New Age
TTITLE0=朝もやの中で
TTITLE1=森は生きている
TTITLE2=木漏れ日
TTITLE3=風に誘われて
EXTD=YEAR: 1993
EXTT0=
EXTT1=
EXTT2=
EXTT3=
PLAYORDER=
